<svg xmlns="http://www.w3.org/2000/svg"  viewBox="0 0 100 100" width="25px" height="25px"><circle cx="50" cy="50" r="35" fill="#fff"/><circle cx="50" cy="50" r="31" fill="#444445"/><path fill="#1f212b" d="M50,86A36,36,0,1,1,86,50,36,36,0,0,1,50,86Zm0-70A34,34,0,1,0,84,50,34,34,0,0,0,50,16Z"/><circle cx="50" cy="50" r="20" fill="#f15b6c"/><path fill="none" stroke="#000" stroke-linecap="round" stroke-miterlimit="10" d="M27.86,71q-.81-.86-1.56-1.77"/><path fill="#1f212b" d="M50,81a30.88,30.88,0,0,1-20.64-7.92.5.5,0,0,1,.67-.75,29.88,29.88,0,1,0-4.62-5.22.51.51,0,0,1-.13.7.5.5,0,0,1-.69-.13A31,31,0,0,1,68,24.75,31,31,0,0,1,55.14,80.57,31.44,31.44,0,0,1,50,81Z"/><path fill="#1f212b" d="M50,70A20,20,0,1,1,60.24,32.82a.51.51,0,0,1,.18.69.51.51,0,0,1-.69.17,19,19,0,1,0,8,9.5.5.5,0,0,1,.29-.64.49.49,0,0,1,.64.29A20,20,0,0,1,50,70Z"/><path fill="#1f212b" d="M67,41a.49.49,0,0,1-.44-.26,19.33,19.33,0,0,0-1.94-2.82.5.5,0,0,1,.07-.71.5.5,0,0,1,.7.07,19.81,19.81,0,0,1,2,3,.51.51,0,0,1-.19.69A.53.53,0,0,1,67,41Z"/><path fill="#1f212b" d="M63.59,36.51a.5.5,0,0,1-.35-.14,18.64,18.64,0,0,0-1.52-1.32.52.52,0,0,1-.08-.71.5.5,0,0,1,.7-.08,20.81,20.81,0,0,1,1.59,1.39.5.5,0,0,1,0,.71A.47.47,0,0,1,63.59,36.51Z"/></svg>