<svg xmlns="http://www.w3.org/2000/svg" id="Layer_1" enable-background="new 0 0 53 53" viewBox="0 0 53 53"><g><g><path d="m47.7585564 35.1200638-2.1901855-10.4600201c-.4499512-2.7600098-2.8398438-4.789978-5.6398926-4.789978h-2.9787598v21.6599712h3.7888184v3.4700317c0 .7599487.619873 1.3800049 1.3798828 1.3800049h3.6201172c.7600098 0 1.3798828-.6200562 1.3798828-1.3800049v-3.4700317h.2399902c.7399902 0 1.3500977-.6099854 1.3500977-1.3499756v-1.4200439c-.0000001-1.3199463-.340088-2.5599976-.9499512-3.6399536z" fill="#000000"/><path d="m45.7387695 46.8798828h-3.6201172c-1.0361328 0-1.8798828-.84375-1.8798828-1.8798828v-2.9697266h-3.2890625c-.2763672 0-.5-.2236328-.5-.5v-21.6601562c0-.2763672.2236328-.5.5-.5h2.9785156c3.0615234 0 5.6416016 2.1914063 6.1337891 5.2099609l2.1699219 10.3632813c.6396484 1.1582031.9765625 2.4755859.9765625 3.8164063v1.4199219c0 .9326172-.6923828 1.7060547-1.5898438 1.8320313v2.9882811c0 1.0361328-.84375 1.8798828-1.8798828 1.8798828zm-8.2890625-5.8496094h3.2890625c.2763672 0 .5.2236328.5.5v3.4697266c0 .4853516.3945313.8798828.8798828.8798828h3.6201172c.4853516 0 .8798828-.3945313.8798828-.8798828v-3.4697266c0-.2763672.2236328-.5.5-.5h.2402344c.4609375 0 .8496094-.3896484.8496094-.8505859v-1.4199219c0-1.1953125-.3066406-2.3681641-.8857422-3.3935547-.0253906-.0449219-.0429688-.09375-.0537109-.1435547l-2.1894531-10.4599609c-.4169922-2.5546875-2.5820313-4.3925781-5.1513672-4.3925781h-2.4785157z" fill="#000000"/></g><g><path d="m9.262 14.74h3.625v33.387h-3.625z" fill="#fff"/><path d="m12.887207 48.6269531h-3.625c-.2763672 0-.5-.2236328-.5-.5v-33.3867187c0-.2763672.2236328-.5.5-.5h3.625c.2763672 0 .5.2236328.5.5v33.3867188c0 .2763671-.2236328.4999999-.5.4999999zm-3.125-1h2.625v-32.3867187h-2.625z" fill="#000000"/></g><g><path d="m48.4421425 46.3700638h-13.0600586v4.1300049h13.0600586c.5699463 0 1.0799561-.2300415 1.4599609-.6100464.3699951-.3699951.5999756-.8899536.5999756-1.4599609 0-1.1400147-.9200439-2.0599976-2.0599365-2.0599976z" fill="#000000"/><path d="m48.4418945 51h-13.0595703c-.2763672 0-.5-.2236328-.5-.5v-4.1298828c0-.2763672.2236328-.5.5-.5h13.0595703c1.4121094 0 2.5605469 1.1484375 2.5605469 2.5595703 0 .6787109-.2724609 1.3398438-.7470703 1.8144531-.4863281.4873047-1.1308594.7558594-1.8134766.7558594zm-12.5595703-1h12.5595703c.4150391 0 .8076172-.1650391 1.1054688-.4638672.2900391-.2880859.4550781-.6914063.4550781-1.1064453 0-.8603516-.7001953-1.5595703-1.5605469-1.5595703h-12.5595703z" fill="#000000"/></g><g><path d="m47.502079 48.4300613c0 .5700073-.2299805 1.0899658-.5999756 1.4599609-.3800049.3800049-.8900146.6100464-1.4599609.6100464h-40.8749933c-1.1398926 0-2.0699463-.9300537-2.0699463-2.0700073 0-.5700073.2301025-1.0800171.6099854-1.460022.3701172-.3699951.8900146-.5999756 1.4599609-.5999756h40.8749924c1.1398935.0000001 2.0599374.919983 2.0599374 2.0599976z" fill="#ddd"/><path d="m45.4418945 51h-40.875c-1.4169922 0-2.5693359-1.1533203-2.5693359-2.5703125 0-.6816406.2685547-1.3261719.7558594-1.8134766.4736328-.4746094 1.1347656-.7460938 1.8134766-.7460938h40.875c1.4121094 0 2.5605469 1.1484375 2.5605469 2.5595703 0 .6787109-.2724609 1.3398438-.7470703 1.8144531-.4863282.4873048-1.1308595.7558595-1.8134767.7558595zm-40.875-4.1298828c-.4150391 0-.8183594.1650391-1.1064453.453125-.2988281.2988281-.4628906.6914063-.4628906 1.1064453 0 .8662109.7041016 1.5703125 1.5693359 1.5703125h40.875c.4150391 0 .8076172-.1650391 1.1054688-.4638672.2900391-.2880859.4550781-.6914063.4550781-1.1064453 0-.8603516-.7001953-1.5595703-1.5605469-1.5595703z" fill="#000000"/></g><g><path d="m20.2472019 5.3200159v11.4400034c0 1.5599976-1.2600098 2.8200073-2.8199463 2.8200073h-12.1101064c-1.5499268 0-2.8199463-1.2699585-2.8199463-2.8299561v-11.4300546c0-1.5599976 1.2600098-2.8199463 2.8099365-2.8199463h12.1201162c1.5599366 0 2.8199463 1.2599487 2.8199463 2.8199463z" fill="#f17368"/><path d="m17.4272461 20.0800781h-12.1103516c-1.8300781 0-3.3193359-1.4941406-3.3193359-3.3300781v-11.4296875c0-1.8310547 1.484375-3.3203125 3.3095703-3.3203125h12.1201172c1.8310547 0 3.3203125 1.4892578 3.3203125 3.3203125v11.4394531c0 1.8310547-1.4892578 3.3203125-3.3203125 3.3203125zm-12.1201172-17.0800781c-1.2734375 0-2.3095703 1.0410156-2.3095703 2.3203125v11.4296875c0 1.2851563 1.0400391 2.3300781 2.3193359 2.3300781h12.1103516c1.2792969 0 2.3203125-1.0410156 2.3203125-2.3203125v-11.4394531c0-1.2792969-1.0410156-2.3203125-2.3203125-2.3203125z" fill="#000000"/></g><g><g><path d="m7.0876389 5.3025599h5.1633482c1.0206928 0 1.8434954.2877207 2.4684086.863162.6249142.5754414.9373713 1.3839231.9373713 2.4254456 0 .89571-.2786074 1.6755495-.8358221 2.3395205s-1.413867.9959564-2.5699577.9959564h-3.6088754v4.8508921h-1.5544729zm6.0616617 1.577907c-.3437023-.1614361-.814991-.2421541-1.413867-.2421541h-3.0933218v3.9760127h3.0933218c.6978207 0 1.2641487-.1484175 1.6989841-.4452515s.6522532-.820199.6522532-1.5700951c0-.8436331-.3124562-1.4164704-.9373703-1.718512z" fill="#000000"/></g></g><g><g><path d="m44.1218262 41.1862869v3.8099976c0 .7600098-.6201172 1.3800049-1.380127 1.3800049h-3.619873c-.7600098 0-1.380127-.6199951-1.380127-1.3800049v-3.8099976z" fill="#283e42"/><path d="m42.7416992 46.8759766h-3.6201172c-1.0361328 0-1.8798828-.84375-1.8798828-1.8798828v-3.8095703c0-.2763672.2236328-.5.5-.5h6.3798828c.2763672 0 .5.2236328.5.5v3.8095703c0 1.0361328-.84375 1.8798828-1.8798828 1.8798828zm-4.5-5.1894532v3.3095703c0 .4853516.3945313.8798828.8798828.8798828h3.6201172c.4853516 0 .8798828-.3945313.8798828-.8798828v-3.3095703z" fill="#000000"/></g><g><path d="m18.8017597 41.1862869h6.3800049v3.8099976c0 .7600098-.6199951 1.3800049-1.3800049 1.3800049h-3.6199951c-.7600098 0-1.3800049-.6199951-1.3800049-1.3800049z" fill="#283e42"/><path d="m23.8022461 46.8759766h-3.6201172c-1.0361328 0-1.8798828-.84375-1.8798828-1.8798828v-3.8095703c0-.2763672.2236328-.5.5-.5h6.3798828c.2763672 0 .5.2236328.5.5v3.8095703c0 1.0361328-.84375 1.8798828-1.8798828 1.8798828zm-4.5-5.1894532v3.3095703c0 .4853516.3945313.8798828.8798828.8798828h3.6201172c.4853516 0 .8798828-.3945313.8798828-.8798828v-3.3095703z" fill="#000000"/></g></g><g><path d="m44.7613907 35.1212845h-26.5991955l2.1955471-10.4571362c.4517803-2.762867 2.8364773-4.7903595 5.6412792-4.7903595h10.9254169c2.8049278 0 5.1896248 2.0274925 5.6412773 4.7903595z" fill="#ddd"/><path d="m44.7612305 35.6210938h-26.5986328c-.1503906 0-.2929688-.0683594-.3876953-.1845703-.0957031-.1171875-.1328125-.2705078-.1015625-.4179688l2.1953125-10.4570313c.4882813-2.9970703 3.0683594-5.1875 6.1298828-5.1875h10.9257813c3.0605469 0 5.640625 2.1904297 6.1347656 5.2089844l2.1914063 10.4355469c.03125.1474609-.0058594.3007813-.1015625.4179688-.0947267.1162109-.2373048.1845703-.3876954.1845703zm-25.9824219-1h25.3662109l-2.0683594-9.8544922c-.4189453-2.5546875-2.5839844-4.3925781-5.1523438-4.3925781h-10.9257811c-2.5693359 0-4.7333984 1.8378906-5.1474609 4.3710938z" fill="#000000"/></g><g><path d="m21.4745312 32.4900589 1.5192585-7.252018c.2234192-1.3699722 1.3953609-2.3641911 2.7866592-2.3641911h11.3619347c1.3913002 0 2.5632401.9952354 2.7876778 2.3652077l1.5192566 7.2510014z" fill="#fff"/><path d="m41.449707 32.9902344h-19.9755859c-.1503906 0-.2929688-.0683594-.3876953-.1845703-.0957031-.1171875-.1328125-.2705078-.1015625-.4179688l1.5195313-7.2519531c.2587891-1.5908203 1.6386719-2.7617188 3.2763672-2.7617188h11.3613281c1.6367188 0 3.0166016 1.1708984 3.28125 2.7841797l1.515625 7.2294922c.03125.1474609-.0058594.3007813-.1015625.4179688-.0947266.1162109-.2373047.1845703-.3876954.1845703zm-19.3603515-1h18.7451172l-1.3935547-6.6484375c-.1894531-1.1494141-1.1542969-1.9677734-2.2988281-1.9677734h-11.3613282c-1.1455078 0-2.109375.8183594-2.2939453 1.9443359z" fill="#000000"/></g><g><path d="m18.1617451 33.6462479v1.3400269h-1.3299561c-1.3100595 0-2.3701181-1.0599976-2.3701181-2.3699951v-.0100098c0-.7299786.5900879-1.3300152 1.3300781-1.3300152.6500254 0 1.2399912.2700195 1.6699228.7000122.4300537.4299907.7000733 1.0200176.7000733 1.669981z" fill="#ddd"/><path d="m18.1616211 35.4863281h-1.3300781c-1.5830078 0-2.8701172-1.2871094-2.8701172-2.8701172 0-1.0185547.8212891-1.8398438 1.8300781-1.8398438.7597656 0 1.4785156.3007813 2.0234375.8466797.5458984.5449219.8466797 1.2636719.8466797 2.0234375v1.3398438c0 .2763672-.2236328.5-.5.5zm-2.3701172-3.7099609c-.4580078 0-.8300781.3720703-.8300781.8300781 0 1.0410156.8388672 1.8798828 1.8701172 1.8798828h.8300781v-.8398438c0-.4921875-.1962891-.9599609-.5537109-1.3164063-.3564454-.3574217-.8242188-.5537108-1.3164063-.5537108z" fill="#000000"/></g><g><path d="m44.7613907 33.6462479v1.3400269h1.3299561c1.3100586 0 2.3701172-1.0599976 2.3701172-2.3699951v-.0100098c0-.7299786-.5900879-1.3300152-1.3300781-1.3300152-.6500244 0-1.2399902.2700195-1.6699219.7000122-.4300538.4299907-.7000733 1.0200176-.7000733 1.669981z" fill="#ddd"/><path d="m46.0913086 35.4863281h-1.3300781c-.2763672 0-.5-.2236328-.5-.5v-1.3398438c0-.7587891.3007813-1.4775391.8466797-2.0234375.5449219-.5458984 1.2636719-.8466797 2.0234375-.8466797 1.0087891 0 1.8300781.8212891 1.8300781 1.8300781 0 1.5927736-1.2871094 2.8798829-2.8701172 2.8798829zm-.8300781-1h.8300781c1.03125 0 1.8701172-.8388672 1.8701172-1.8701172 0-.4677734-.3720703-.8398438-.8300781-.8398438-.4921875 0-.9599609.1962891-1.3164063.5537109-.3574219.3574219-.5537109.8242188-.5537109 1.3164063z" fill="#000000"/></g><g><path d="m45.7116699 38.7562943v1.4199829c0 .7399902-.6098633 1.3499756-1.3498535 1.3499756h-25.8100567c-.7399902 0-1.3400879-.6099854-1.3400879-1.3499756v-1.4199829c0-4.1300049 3.3500977-7.4800396 7.4801025-7.4800396h13.5299053c4.130127 0 7.4899903 3.3500347 7.4899903 7.4800396z" fill="#ddd"/><path d="m44.3618164 42.0263672h-25.8095703c-1.0146484 0-1.8408203-.8300781-1.8408203-1.8496094v-1.4208984c0-4.3994141 3.5800781-7.9794922 7.9804688-7.9794922h13.5302734c4.4052734 0 7.9892578 3.5800781 7.9892578 7.9794922v1.4208984c0 1.0195313-.8300781 1.8496094-1.8496094 1.8496094zm-19.6699219-10.25c-3.8486328 0-6.9804688 3.1308594-6.9804688 6.9794922v1.4208984c0 .46875.3769531.8496094.8408203.8496094h25.8095703c.4609375 0 .8496094-.3886719.8496094-.8496094v-1.4208984c0-3.8486328-3.1357422-6.9794922-6.9892578-6.9794922z" fill="#000000"/></g><g><path d="m35.1717529 35.3662796v2.0700073c0 .5999756-.4899902 1.0899658-1.0899658 1.0899658h-5.2399883c-.6000977 0-1.0900879-.4899902-1.0900879-1.0899658v-2.0700073c0-.6000366.4899902-1.0900269 1.0900879-1.0900269h5.2399883c.5999756 0 1.0899658.4899903 1.0899658 1.0900269z" fill="#283e42"/><path d="m34.081543 39.0263672h-5.2392578c-.8769531 0-1.5908203-.7128906-1.5908203-1.5898438v-2.0703125c0-.8769531.7138672-1.5898438 1.5908203-1.5898438h5.2392578c.8769531 0 1.5898438.7128906 1.5898438 1.5898438v2.0703125c-.0000001.8769532-.7128907 1.5898438-1.5898438 1.5898438zm-5.2392578-4.25c-.3261719 0-.5908203.2646484-.5908203.5898438v2.0703125c0 .3251953.2646484.5898438.5908203.5898438h5.2392578c.3251953 0 .5898438-.2646484.5898438-.5898438v-2.0703125c0-.3251953-.2646484-.5898438-.5898438-.5898438z" fill="#000000"/></g><g><g><circle cx="22.719" cy="36.401" fill="#f17368" r="2.125"/><path d="m22.7182617 39.0263672c-1.4472656 0-2.625-1.1777344-2.625-2.625s1.1777344-2.625 2.625-2.625 2.625 1.1777344 2.625 2.625-1.1777344 2.625-2.625 2.625zm0-4.25c-.8964844 0-1.625.7285156-1.625 1.625s.7285156 1.625 1.625 1.625 1.625-.7285156 1.625-1.625-.7285156-1.625-1.625-1.625z" fill="#000000"/></g><g><circle cx="40.205" cy="36.401" fill="#f17368" r="2.125"/><path d="m40.2045898 39.0263672c-1.4472656 0-2.625-1.1777344-2.625-2.625s1.1777344-2.625 2.625-2.625 2.625 1.1777344 2.625 2.625-1.1777343 2.625-2.625 2.625zm0-4.25c-.8964844 0-1.625.7285156-1.625 1.625s.7285156 1.625 1.625 1.625 1.625-.7285156 1.625-1.625-.7285156-1.625-1.625-1.625z" fill="#000000"/></g></g></g></svg>