<svg xmlns="http://www.w3.org/2000/svg" xmlns:svg="http://www.w3.org/2000/svg" version="1.1" id="svg4251" xml:space="preserve" width="682.66669" height="682.66669" viewBox="0 0 682.66669 682.66669"><defs id="defs4255" fill="#000000"><clipPath clipPathUnits="userSpaceOnUse" id="clipPath4265" fill="#000000"><path d="M 0,512 H 512 V 0 H 0 Z" id="path4263" fill="#000000"/></clipPath></defs><g id="g4257" transform="matrix(1.3333333,0,0,-1.3333333,0,682.66667)"><g id="g4259"><g id="g4261" clip-path="url(#clipPath4265)"><g id="g4267" transform="translate(388.0674,7.7197)"><path d="m 0,0 h -264.135 c -64.303,0 -116.432,52.129 -116.432,116.433 v 263.695 c 0,64.304 52.129,116.433 116.432,116.433 H 0 c 64.304,0 116.433,-52.129 116.433,-116.433 V 116.433 C 116.433,52.129 64.304,0 0,0" style="fill:#0e9d28;fill-opacity:1;fill-rule:nonzero;stroke:none" id="path4269"/></g><g id="g4271" transform="translate(388.0156,504.2803)"><path d="M 0,0 H -38.828 C 25.505,0 77.656,-52.105 77.656,-116.382 v -263.797 c 0,-64.276 -52.151,-116.382 -116.484,-116.382 H 0 c 64.333,0 116.484,52.106 116.484,116.382 v 263.797 C 116.484,-52.105 64.333,0 0,0" style="fill:#219831;fill-opacity:1;fill-rule:nonzero;stroke:none" id="path4273"/></g><g id="g4275" transform="translate(315.4111,343.9678)"><path d="m 0,0 c -7.948,6.649 -19.085,9.979 -33.409,9.979 h -56.57 v -88.376 h 56.57 c 14.324,0 25.461,3.595 33.409,10.793 7.948,7.194 11.926,18.597 11.926,34.208 C 11.926,-17.786 7.948,-6.652 0,0 m 47.911,-108.127 c -17.585,-14.661 -42.698,-21.992 -75.339,-21.992 h -62.551 v -93.376 c 0,-8.034 -6.519,-14.548 -14.56,-14.548 h -33.245 c -8.041,0 -14.561,6.514 -14.561,14.548 V 47.56 c 0,8.034 6.52,14.547 14.561,14.547 h 114.429 c 29.737,0 53.446,-7.738 71.126,-23.213 17.68,-15.476 26.521,-39.438 26.521,-71.882 0,-35.431 -8.796,-60.478 -26.381,-75.139" style="fill:#ffffff;fill-opacity:1;fill-rule:nonzero;stroke:none" id="path4277"/></g><g id="g4279" transform="translate(363.1816,382.8613)"><path d="m 0,0 c -17.68,15.476 -41.389,23.214 -71.126,23.214 h -38.829 c 29.737,0 53.447,-7.738 71.127,-23.214 17.681,-15.476 26.521,-39.438 26.521,-71.882 0,-35.431 -8.797,-60.477 -26.381,-75.139 -17.585,-14.661 -42.698,-21.992 -75.339,-21.992 h 38.829 c 32.64,0 57.754,7.331 75.339,21.992 17.585,14.662 26.38,39.708 26.38,75.139 C 26.521,-39.438 17.681,-15.476 0,0" style="fill:#ced3d6;fill-opacity:1;fill-rule:nonzero;stroke:none" id="path4281"/></g><g id="g4283" transform="translate(273.5,504.2803)"><path d="M 0,0 H 114.567 C 178.871,0 231,-52.129 231,-116.433 v -263.695 c 0,-64.304 -52.129,-116.433 -116.433,-116.433 h -264.134 c -64.304,0 -116.433,52.129 -116.433,116.433 v 263.695 C -266,-52.129 -213.871,0 -149.567,0 H -35" style="fill:none;stroke:#000000;stroke-width:15;stroke-linecap:round;stroke-linejoin:round;stroke-miterlimit:10;stroke-dasharray:none;stroke-opacity:1" id="path4285"/></g><g id="g4287" transform="translate(315.4111,343.9678)"><path d="m 0,0 c -7.948,6.649 -19.085,9.979 -33.409,9.979 h -56.57 v -88.376 h 56.57 c 14.324,0 25.461,3.595 33.409,10.793 7.948,7.194 11.926,18.597 11.926,34.208 C 11.926,-17.786 7.948,-6.652 0,0 Z m 73.354,-51.914 c -2.69,-25.577 -11.172,-44.315 -25.443,-56.213 -17.585,-14.661 -42.698,-21.992 -75.339,-21.992 h -62.551 v -93.376 c 0,-8.034 -6.519,-14.548 -14.56,-14.548 h -33.245 c -8.041,0 -14.561,6.514 -14.561,14.548 v 26.314 m 0,35.002 V 47.56 c 0,8.034 6.52,14.547 14.561,14.547 h 114.429 c 29.737,0 53.446,-7.738 71.126,-23.213 C 62.393,26.095 70.969,7.492 73.498,-16.913" style="fill:none;stroke:#000000;stroke-width:15;stroke-linecap:round;stroke-linejoin:round;stroke-miterlimit:10;stroke-dasharray:none;stroke-opacity:1" id="path4289"/></g></g></g></g></svg>