<?xml version="1.0"?>
<svg width="2200" height="2200" xmlns="http://www.w3.org/2000/svg" xmlns:svg="http://www.w3.org/2000/svg" enable-background="new 0 0 2200 2200" version="1.1" xml:space="preserve">
 <g class="layer">
  <title>Layer 1</title>
  <rect fill="#ffffff" height="1386.66" id="svg_8" stroke="#ffffff" transform="matrix(1 0 0 1 0 0)" width="1362" x="377.7" y="379.27"/>
  <g id="Objects">
   <g id="svg_2">
    <path d="m1622.48,379.27l-1129.22,0c-65.19,0 -118.22,53.92 -118.22,120.18l0,1147.96c0,66.27 53.04,120.18 118.22,120.18l653.53,0c-0.05,-0.96 -0.07,-1.91 -0.07,-2.89l0,-5.4l-653.46,0c-60.69,0 -110.07,-50.19 -110.07,-111.9l0,-1147.96c0,-61.7 49.38,-111.9 110.07,-111.9l1129.22,0c60.69,0 110.07,50.2 110.07,111.9l0,839.88c2.74,0.02 5.47,0.22 8.15,0.59l0,-840.47c0,-66.26 -53.04,-120.18 -118.22,-120.18z" fill="#ed2a2a" id="svg_3"/>
    <path d="m1207.11,875.47l0,1.24c0,50.3 -16.86,89.15 -50.57,116.57c-33.71,27.42 -81.03,41.12 -141.89,41.12l-143.3,0l0,-316.6l143.31,0c60.86,0 108.17,13.5 141.88,40.5c33.73,27 50.57,66.07 50.57,117.18z" fill="#ed2a2a" id="svg_4" transform="matrix(1 0 0 1 0 0)"/>
    <path d="m1607.76,434.94l-1107.12,0c-39.67,0 -71.94,32.94 -71.94,73.44l0,1130.11c0,40.5 32.27,73.44 71.94,73.44l640.66,0l0,-114.06c0,-18.53 7.75,-36.25 21.26,-48.62l35.91,-32.85c-12.57,-1.3 -22.77,-3.69 -30.46,-7.13c-4.46,-1.98 -8.26,-5.26 -10.96,-9.47c-2.69,-4.22 -4.12,-9.07 -4.12,-14.08c0,-5.53 1.79,-11 5.01,-15.39c5.37,-7.32 21.26,-24.38 52.3,-24.38l18.09,0c8.47,0 16.13,3.55 21.65,9.26l41.57,-84.26c10.86,-22.06 32.65,-35.76 56.86,-35.76l331.29,0l0,-826.83c0,-40.49 -32.28,-73.43 -71.94,-73.43zm-210.81,452.7c0,63.52 -13.36,119.1 -40.04,166.74c-26.71,47.64 -64.01,84.65 -111.94,111.05c-47.93,26.4 -103.84,39.59 -167.75,39.59l-175.32,0l0,373.5l-190.46,0l0,-1010.17l365.77,0c63.91,0 119.82,13.19 167.75,39.59c47.93,26.4 85.24,63.41 111.94,111.05c26.69,47.64 40.05,103.43 40.05,167.37l0,1.3l0,-0.01z" fill="#ed2a2a" id="svg_5" transform="matrix(1 0 0 1 0 0)"/>
    <polygon fill="#FFFFFF" id="svg_6" points="1536.56831741333,1300.839641571045 1278.52827835083,1300.839641571045 1197.0093574523926,1467.423625946045 1085.3623847961426,1567.4916191101074 1085.3623847961426,1805.0216484069824 1990.0542793273926,1805.0216484069824 1990.0542793273926,1562.234661102295 1870.432331085205,1455.7316093444824 1790.6853828430176,1300.839641571045 "/>
    <path d="m1973,1534.11l-67.14,-60.18l2.58,-7.85c1.11,-3.39 4.25,-5.68 7.8,-5.74c31.22,-0.5 47.37,-4.97 55.28,-8.44c2.09,-0.91 3.81,-2.41 5.01,-4.24c1.2,-1.84 1.87,-4.02 1.87,-6.3c0,-2.47 -0.78,-4.88 -2.26,-6.84c-5.18,-6.92 -19.82,-21.9 -49.43,-21.9l-22.63,0c-9.95,0 -18.02,8.07 -18.02,18.01l0,25.54l-9.41,-8.44l-69.52,-138.03c-10.14,-20.12 -30.74,-32.81 -53.28,-32.81l-458.6,0c-22.53,0 -43.14,12.69 -53.27,32.82l-69.51,138.02l-9.41,8.45l0,-25.55c0,-9.94 -8.07,-18.01 -18.02,-18.01l-22.63,0c-29.61,0 -44.25,14.98 -49.43,21.9c-1.48,1.97 -2.26,4.38 -2.26,6.84c0,2.28 0.67,4.46 1.87,6.3c1.2,1.83 2.92,3.33 5.01,4.24c7.91,3.47 24.06,7.94 55.28,8.44c3.55,0.06 6.69,2.35 7.8,5.74l2.58,7.85l-67.14,60.18c-12.7,11.4 -19.96,27.66 -19.96,44.71l0,191.29c0,8.94 2.74,17.25 7.44,24.12l0,52.11c0,17.89 14.5,32.39 32.38,32.39l90.03,0c17.88,0 32.39,-14.5 32.39,-32.39l0,-33.38l612.32,0l0,33.38c0,17.89 14.51,32.39 32.39,32.39l90.03,0c17.88,0 32.38,-14.5 32.38,-32.39l0,-52.1c4.7,-6.87 7.44,-15.18 7.44,-24.13l0,-191.29c0.01,-17.05 -7.25,-33.31 -19.96,-44.71zm-704.07,-210.82c5.03,-10.01 15.13,-16.23 26.32,-16.23l179.82,0c2.57,0 4.87,1.61 5.75,4.03l3.81,10.47c1.5,4.12 5.41,6.86 9.79,6.86l60.28,0c4.38,0 8.29,-2.74 9.79,-6.86l3.81,-10.47c0.88,-2.42 3.18,-4.03 5.75,-4.03l179.8,0c11.2,0 21.29,6.22 26.33,16.23l62.69,124.45l-636.62,0l62.68,-124.45zm452.81,289.29l14.7,19.44l-423.73,0l14.68,-19.44l394.35,0zm-389.78,-6.03l6.26,-8.31c5.27,-6.96 13.62,-11.12 22.36,-11.12l327.96,0c8.74,0 17.09,4.16 22.36,11.12l6.27,8.31l-385.21,0zm409.03,31.5l11.79,15.59c0.93,1.22 1.67,2.5 2.24,3.84l-460.92,0c0.58,-1.34 1.32,-2.62 2.24,-3.84l11.79,-15.59l432.86,0zm-507.61,136.95l-106.91,0c-11.39,0 -20.91,-8.67 -21.98,-20l-1.5,-15.86c-1.25,-13.29 9.48,-24.64 22.82,-24.14l85.36,3.26c9.31,0.35 17.39,6.52 20.21,15.4l9.74,30.76c1.66,5.23 -2.24,10.58 -7.74,10.58zm6.67,-155.62l-128.41,0c-11.18,0 -20.24,-9.06 -20.24,-20.24l0,-19.41c0,-11.18 9.06,-20.24 20.24,-20.24l176.69,0c6.7,0 11.67,6.19 10.26,12.74c-2.48,11.42 -8.21,21.63 -16.19,29.61c-10.83,10.85 -25.8,17.54 -42.35,17.54zm494.96,146.16c0,5.23 -4.24,9.46 -9.46,9.46l-401.98,0c-5.22,0 -9.46,-4.23 -9.46,-9.46l0,-19.58c0,-5.22 4.24,-9.45 9.46,-9.45l401.98,0c5.22,0 9.46,4.23 9.46,9.45l0,19.58zm19.55,-92.74c-3.16,6.35 -9.28,10.15 -16.36,10.15l-427.26,0c-7.09,0 -13.22,-3.79 -16.37,-10.15c-1.49,-2.99 -2.12,-6.17 -1.92,-9.28l463.83,0c0.21,3.11 -0.43,6.29 -1.92,9.28zm-4.03,-100.56c-1.41,-6.55 3.56,-12.74 10.26,-12.74l176.69,0c11.19,0 20.24,9.05 20.24,20.24l0,19.41c0,11.18 -9.05,20.24 -20.24,20.24l-128.41,0c-16.54,0 -31.52,-6.7 -42.35,-17.54c-7.98,-7.99 -13.71,-18.2 -16.19,-29.61zm65.22,202.76c-5.49,0 -9.41,-5.34 -7.75,-10.58l9.74,-30.76c2.82,-8.88 10.91,-15.04 20.22,-15.4l85.35,-3.26c13.34,-0.5 24.07,10.84 22.82,24.14l-1.5,15.86c-1.07,11.33 -10.59,20 -21.98,20l-106.9,0z" id="svg_7"/>
   </g>
  </g>
 </g>
</svg>